<svg width="49" height="49" viewBox="0 0 49 49" fill="none" xmlns="http://www.w3.org/2000/svg">
<rect x="0.5" y="0.75" width="48" height="48" rx="24" fill="#10BC4C"/>
<path d="M36.5145 12.8014H12.5001V36.8371H36.5145V12.8014Z" fill="#10BC4C"/>
<path fill-rule="evenodd" clip-rule="evenodd" d="M24.5073 12.8014C17.9033 12.8014 12.5001 18.2094 12.5001 24.8192C12.5001 31.4291 17.9033 36.8371 24.5073 36.8371C31.1112 36.8371 36.5145 31.4291 36.5145 24.8192C36.5145 18.2094 31.1713 12.8014 24.5073 12.8014ZM30.0306 30.1672C29.7905 30.5277 29.3702 30.6479 29.01 30.4075C26.1883 28.665 22.6462 28.3044 18.4437 29.2658C18.0234 29.386 17.6632 29.0856 17.5431 28.725C17.423 28.3044 17.7232 27.9439 18.0834 27.8237C22.6462 26.8022 26.6085 27.2228 29.7304 29.1457C30.1507 29.3259 30.2107 29.8067 30.0306 30.1672ZM31.4715 26.8623C31.1713 27.2829 30.631 27.4632 30.2107 27.1627C26.9688 25.1798 22.0458 24.5789 18.2635 25.7807C17.7833 25.9008 17.2429 25.6605 17.1229 25.1798C17.0028 24.6991 17.2429 24.1583 17.7232 24.0381C22.1059 22.7161 27.5091 23.3771 31.2313 25.6605C31.5915 25.8408 31.7716 26.4416 31.4715 26.8623ZM31.5915 23.4973C27.7492 21.2139 21.3254 20.9735 17.6632 22.1152C17.0628 22.2955 16.4625 21.9349 16.2824 21.3941C16.1023 20.7932 16.4625 20.1924 17.0028 20.0121C21.2653 18.7502 28.2896 18.9906 32.7322 21.6345C33.2725 21.9349 33.4527 22.656 33.1525 23.1968C32.8523 23.6174 32.1319 23.7977 31.5915 23.4973Z" fill="white"/>
</svg>
