<svg width="49" height="48" viewBox="0 0 49 48" fill="none" xmlns="http://www.w3.org/2000/svg">
<rect x="0.75" width="48" height="48" rx="24" fill="#FF0000"/>
<path d="M38.1003 17.398C37.787 16.2198 36.8599 15.2903 35.6803 14.9718C33.5476 14.4001 24.9905 14.4001 24.9905 14.4001C24.9905 14.4001 16.4378 14.4001 14.3007 14.9718C13.1255 15.286 12.1984 16.2154 11.8807 17.398C11.3105 19.5361 11.3105 24.0001 11.3105 24.0001C11.3105 24.0001 11.3105 28.4641 11.8807 30.6023C12.1941 31.7805 13.1212 32.71 14.3007 33.0285C16.4378 33.6001 24.9905 33.6001 24.9905 33.6001C24.9905 33.6001 33.5476 33.6001 35.6803 33.0285C36.8555 32.7143 37.7826 31.7849 38.1003 30.6023C38.6705 28.4641 38.6705 24.0001 38.6705 24.0001C38.6705 24.0001 38.6705 19.5361 38.1003 17.398Z" fill="white"/>
<path d="M22.2571 28.1151L29.3648 24.0001L22.2571 19.8852V28.1151Z" fill="#FF0000"/>
</svg>
